# xmcd
#
# Track frame offsets: 
#        150
#        14402
#        32250
#        45045
#        65217
#        80185
#        90832
#        104170
#        116117
#        133117
#        148557
#        163845
#        179812
#        195550
#        205452
#        221720
#
# Disc length: 3194 seconds
#
# Revision: 1
# Processed by: cddbd v1.5.2PL0 Copyright (c) Steve Scherf et al.
# Submitted via: ExactAudioCopy v0.99pb4
#
DISCID=f00c7810
DTITLE=James Taylor - The best of
DYEAR=1900
DGENRE=
TTITLE0=Something in the way she moves
TTITLE1=Carolina on my mind
TTITLE2=Sweet Baby James
TTITLE3=You've got a friend
TTITLE4=I was a fool to care
TTITLE5=Long ago and far away
TTITLE6=Mexico
TTITLE7=Don't let me lonely be tonight
TTITLE8=Hey mister, that's me upon the jukebox
TTITLE9=Fire and rain
TTITLE10=Country road
TTITLE11=Walking man
TTITLE12=A junkie's lament
TTITLE13=Blossom
TTITLE14=How sweet it is (to be loved by you)
TTITLE15=Shower the people
EXTD=
EXTT0=
EXTT1=
EXTT2=
EXTT3=
EXTT4=
EXTT5=
EXTT6=
EXTT7=
EXTT8=
EXTT9=
EXTT10=
EXTT11=
EXTT12=
EXTT13=
EXTT14=
EXTT15=
PLAYORDER=
